<?xml version="1.0" encoding="iso-8859-1"?>
<!-- Generator: Adobe Illustrator 13.0.2, SVG Export Plug-In . SVG Version: 6.00 Build 14948)  -->
<!DOCTYPE svg PUBLIC "-//W3C//DTD SVG 1.1//EN" "http://www.w3.org/Graphics/SVG/1.1/DTD/svg11.dtd">
<svg version="1.1" id="Layer_1" xmlns="http://www.w3.org/2000/svg" xmlns:xlink="http://www.w3.org/1999/xlink" x="0px" y="0px"
	 width="94.418px" height="81.789px" viewBox="0 0 94.418 81.789" style="enable-background:new 0 0 94.418 81.789;"
	 xml:space="preserve" fill="red" stroke="gray" transform="rotate(0)">
<g>
	<path d="M47.209,81.789l-3.312-6.008h-13.25c-0.414-1.047,0.625-3.32,0.625-3.32c2.688-3.523,11.594-7.234,11.594-7.234l-2.688-35
		L5.389,28.148c-5.797-0.828-5.383-4.953-5.383-4.953c0-3.32,6-4.359,6-4.359l34.586-3.914l2.477-10.367h-4.758V3.102h6.406
		L47.413,0l2.281,3.102h6.422v1.453h-4.758l2.477,10.367l34.57,3.914c0,0,6.008,1.039,6.008,4.359c0,0,0.414,4.125-5.383,4.953
		l-34.781,2.078l-2.694,35c0,0,8.913,3.711,11.594,7.233c0,0,1.039,2.272,0.625,3.32H50.53L47.209,81.789"/>
</g>
</svg>
